<svg xmlns="http://www.w3.org/2000/svg" height="38" viewBox="0 -960 960 960" width="48"><path d="M281.983-88.309q-29.224 0-49.449-20.586-20.225-20.586-20.225-49.969 0-29.383 20.468-49.721 20.468-20.338 49.685-20.338 29.217 0 49.647 20.586 20.429 20.586 20.429 49.969 0 29.382-20.586 49.721-20.586 20.338-49.969 20.338Zm399.692 0q-29.224 0-49.45-20.586Q612-129.481 612-158.864q0-29.383 20.468-49.721 20.468-20.338 49.685-20.338 29.217 0 49.647 20.586t20.43 49.969q0 29.382-20.586 49.721-20.587 20.338-49.969 20.338ZM230.692-746.231l109.539 227.616h281.384q3.461 0 6.346-1.731 2.885-1.731 4.424-4.808l115.461-210.307q2.308-4.231.384-7.501-1.923-3.269-6.539-3.269H230.692Zm-29.076-58.384h581.812q24.027 0 36.337 21.193 12.31 21.192.31 42.961l-132.938 239.72q-10.041 17.682-27.541 29.095-17.499 11.414-37.825 11.414H320l-49.231 90.077q-2.692 4.616 0 10.001 2.693 5.385 8.462 5.385H753.23v58.383H274.924q-41.769 0-59.538-29.577-17.77-29.576.307-64.115l62.385-115.23-151.231-320.308H48.924v-58.383h115.307l37.385 79.384Zm138.615 286h288.692-288.692Z" fill="white"/></svg>